HIERARCHY
ROOT Hips
{
	OFFSET 0.000000 0.000000 0.000000
	CHANNELS 6 Xposition Yposition Zposition Zrotation Yrotation Xrotation 
	JOINT LeftUpLeg_virtual
	{
		OFFSET 0.000000 0.000000 0.000000
		CHANNELS 3 Zrotation Yrotation Xrotation
		JOINT LeftUpLeg
		{
			OFFSET 8.479694 -4.795517 -0.379053
			CHANNELS 3 Zrotation Yrotation Xrotation
			JOINT LeftLeg
			{
				OFFSET 0.485052 -32.551468 0.112863
				CHANNELS 3 Zrotation Yrotation Xrotation
				JOINT LeftFoot
				{
					OFFSET 0.438033 -32.635670 -3.012641
					CHANNELS 3 Zrotation Yrotation Xrotation
					JOINT LeftToeBase
					{
						OFFSET 0.970169 -13.225353 11.864223
						CHANNELS 3 Zrotation Yrotation Xrotation
						End Site
						{
							OFFSET 0.000000 0.000000 0.000000
						}
					}
				}
			}
		}
	}
	JOINT RightUpLeg_virtual
	{
		OFFSET 0.000000 0.000000 0.000000
		CHANNELS 3 Zrotation Yrotation Xrotation
		JOINT RightUpLeg
		{
			OFFSET -8.479694 -4.795517 -0.379053
			CHANNELS 3 Zrotation Yrotation Xrotation
			JOINT RightLeg
			{
				OFFSET -0.484100 -32.551483 0.112903
				CHANNELS 3 Zrotation Yrotation Xrotation
				JOINT RightFoot
				{
					OFFSET -0.438985 -32.635651 -3.012681
					CHANNELS 3 Zrotation Yrotation Xrotation
					JOINT RightToeBase
					{
						OFFSET -0.970169 -13.225354 11.864223
						CHANNELS 3 Zrotation Yrotation Xrotation
						End Site
						{
							OFFSET 0.000000 0.000000 0.000000
						}
					}
				}
			}
		}
	}
	JOINT Spine_virtual
	{
		OFFSET 0.000000 0.000000 0.000000
		CHANNELS 3 Zrotation Yrotation Xrotation
		JOINT Spine
		{
			OFFSET 0.000000 7.722015 1.166203
			CHANNELS 3 Zrotation Yrotation Xrotation
			JOINT Spine1
			{
				OFFSET 0.000000 12.024086 0.248766
				CHANNELS 3 Zrotation Yrotation Xrotation
				JOINT Spine2
				{
					OFFSET -0.000000 11.503036 -0.491240
					CHANNELS 3 Zrotation Yrotation Xrotation
					JOINT Neck_virtual
					{
						OFFSET 0.000000 0.000000 0.000000
						CHANNELS 3 Zrotation Yrotation Xrotation
						JOINT Neck
						{
							OFFSET 0.000000 18.430687 -3.123054
							CHANNELS 3 Zrotation Yrotation Xrotation
							JOINT Head
							{
								OFFSET -0.000000 9.051071 1.034021
								CHANNELS 3 Zrotation Yrotation Xrotation
								End Site
								{
									OFFSET 0.000000 0.000000 0.000000
								}
							}
						}
					}
					JOINT LeftShoulder_virtual
					{
						OFFSET 0.000000 0.000000 0.000000
						CHANNELS 3 Zrotation Yrotation Xrotation
						JOINT LeftShoulder
						{
							OFFSET 6.197824 13.665230 -4.064723
							CHANNELS 3 Zrotation Yrotation Xrotation
							JOINT LeftArm
							{
								OFFSET 7.778132 -0.187073 -1.709282
								CHANNELS 3 Zrotation Yrotation Xrotation
								JOINT LeftForeArm
								{
									OFFSET 21.954697 0.000000 -2.041093
									CHANNELS 3 Zrotation Yrotation Xrotation
									JOINT LeftHand
									{
										OFFSET 22.992908 0.000000 -0.870901
										CHANNELS 3 Zrotation Yrotation Xrotation
										End Site
										{
											OFFSET 0.000000 0.000000 0.000000
										}
									}
								}
							}
						}
					}
					JOINT RightShoulder_virtual
					{
						OFFSET 0.000000 0.000000 0.000000
						CHANNELS 3 Zrotation Yrotation Xrotation
						JOINT RightShoulder
						{
							OFFSET -6.197824 13.665230 -4.064723
							CHANNELS 3 Zrotation Yrotation Xrotation
							JOINT RightArm
							{
								OFFSET -7.778132 -0.187073 -1.709282
								CHANNELS 3 Zrotation Yrotation Xrotation
								JOINT RightForeArm
								{
									OFFSET -21.954697 0.000000 -2.041093
									CHANNELS 3 Zrotation Yrotation Xrotation
									JOINT RightHand
									{
										OFFSET -22.992908 0.000000 -0.870901
										CHANNELS 3 Zrotation Yrotation Xrotation
										End Site
										{
											OFFSET 0.000000 0.000000 0.000000
										}
									}
								}
							}
						}
					}
				}
			}
		}
	}
}
MOTION
Frames: 4
Frame Time: 0.033333
24.806593 79.128151 23.786165 -179.942140 -15.123004 179.982247 -3.139890 -4.185468 9.053821 15.661834 -3.749433 -27.819600 3.591822 2.028549 42.072138 -3.807090 -1.691708 -10.783333 0.000000 0.000000 0.000000 1.578437 -5.581593 8.789430 1.017101 3.277100 -23.456142 2.038076 5.772222 34.839928 4.419841 5.035637 -18.114746 0.000000 0.000000 0.000000 0.599418 -2.579862 -9.097949 3.112019 5.900516 0.434075 0.606403 -2.548006 9.199073 -0.019997 -0.011967 0.001925 0.044921 -0.971993 11.178763 1.593379 -6.920898 2.442830 0.000000 0.000000 0.000000 1.378817 -0.602441 8.178126 0.174354 -3.303748 4.879894 -55.325109 -1.069295 -16.070151 -134.659037 -84.202920 152.280024 0.000000 0.000000 0.000000 -2.388039 1.108290 7.413703 18.206677 -3.625388 0.564456 55.639500 -6.718559 -5.950235 -168.089958 74.771652 -174.936226 0.000000 0.000000 0.000000 
24.862707 79.127296 23.790808 -179.922441 -15.159540 179.964106 -3.143445 -4.242243 9.008126 15.722213 -3.898609 -27.779704 3.639283 1.926870 42.205750 -3.745657 -1.606554 -10.970693 0.000000 0.000000 0.000000 1.535287 -5.536710 8.801581 1.271577 2.589067 -23.367803 2.161359 5.372944 35.336909 4.563040 5.284449 -18.611700 0.000000 0.000000 0.000000 0.554892 -2.593679 -9.172824 3.016875 5.714094 0.461697 0.601298 -2.579786 9.159247 0.010865 -0.050825 -0.009971 0.057487 -0.798804 11.110074 1.639188 -6.951103 2.373591 0.000000 0.000000 0.000000 1.378813 -0.521474 8.112252 -0.096280 -3.575655 4.932272 -55.793155 -1.789643 -15.436590 -135.462937 -83.945661 153.120547 0.000000 0.000000 0.000000 -2.335891 1.271951 7.379522 18.553369 -3.561722 0.519332 56.068630 -6.414464 -5.933499 -167.672688 74.698692 -174.660751 0.000000 0.000000 0.000000 
24.918755 79.118881 23.789339 -179.931676 -14.895166 179.950186 -3.145212 -4.259875 8.975378 15.710543 -3.871624 -27.667893 3.665654 1.941794 42.261895 -3.690551 -1.529380 -10.915077 0.000000 0.000000 0.000000 1.532515 -5.445496 8.773538 1.297263 2.594375 -23.334776 2.170440 5.412603 35.324454 4.616313 5.353527 -18.594609 0.000000 0.000000 0.000000 0.533586 -2.585474 -9.259508 2.847961 5.674611 0.473107 0.545604 -2.574394 9.152924 -0.015401 -0.038718 -0.013489 0.025127 -0.845048 10.990812 1.525347 -6.868860 2.246848 0.000000 0.000000 0.000000 1.376653 -0.595471 7.986190 -0.442236 -3.957813 5.024224 -56.592605 -2.842776 -14.082137 -136.621965 -83.801722 154.340296 0.000000 0.000000 0.000000 -2.322370 1.190402 7.321739 19.086789 -3.457612 0.368556 57.061224 -5.743370 -5.902985 -166.605731 74.689532 -173.795092 0.000000 0.000000 0.000000 
24.969646 79.109070 23.773998 -179.849795 -14.341364 179.978148 -3.068213 -4.265416 8.958456 15.665807 -3.599160 -27.570397 3.709003 1.932671 42.363811 -3.605534 -1.450581 -10.957089 0.000000 0.000000 0.000000 1.617270 -5.181066 8.740802 1.339114 2.567517 -23.407543 2.195992 5.497804 35.370247 4.679300 5.429670 -18.586649 0.000000 0.000000 0.000000 0.640152 -2.566468 -9.351790 2.714280 5.642071 0.462525 0.517236 -2.520372 9.131124 0.008337 0.014225 0.009302 -0.092649 -0.990567 10.941692 1.276501 -6.726154 2.127372 0.000000 0.000000 0.000000 1.255514 -0.551303 7.915680 -0.701790 -4.466124 5.028289 -57.584485 -3.807470 -12.304281 -137.876821 -83.823176 155.635983 0.000000 0.000000 0.000000 -2.407582 1.216281 7.334475 19.779968 -3.310623 0.330835 58.299667 -4.806268 -5.891720 -165.479050 74.812223 -172.912728 0.000000 0.000000 0.000000 
